<?xml version="1.0" encoding="utf-8"?>
<!-- Generator: Adobe Illustrator 23.0.5, SVG Export Plug-In . SVG Version: 6.00 Build 0)  -->
<svg version="1.1" id="Capa_1" xmlns="http://www.w3.org/2000/svg" xmlns:xlink="http://www.w3.org/1999/xlink" x="0px" y="0px"
	 viewBox="0 0 400 500" style="enable-background:new 0 0 400 500;" xml:space="preserve">
<style type="text/css">
	.st0{fill:#225161;}
	.st1{fill:#A8BBC2;}
	.st2{fill:#FB2839;}
	.st3{fill:#0E2630;}
	.st4{fill:#6E6962;}
	.st5{fill:#FFACA3;}
	.st6{fill:#7A3ABA;}
	.st7{fill:#313B5C;}
	.st8{fill:#FFFFFF;}
	.st9{fill:#9762CC;}
	.st10{fill:#FF7876;}
	.st11{fill:#ABC885;}
	.st12{fill:#BD642C;}
	.st13{fill:#FFFBD5;}
	.st14{fill:#542D14;}
	.st15{fill:#7D360A;}
	.st16{opacity:0.24;}
	.st17{fill:none;stroke:#FFFBD5;stroke-width:0.5;stroke-miterlimit:10;}
	.st18{fill:#FF6161;}
	.st19{fill:#592108;}
	.st20{fill:#6B2709;}
	.st21{fill:#0D0505;}
	.st22{fill:#C9482D;}
	.st23{fill:#5A3D2A;}
	.st24{fill:none;stroke:#222221;stroke-width:0.5;stroke-miterlimit:10;}
</style>
<g>
	<g>
		<g>
			<path class="st0" d="M341.82,445.97H230.75c-2.27,0-4.11-1.84-4.11-4.11v-104.9c0-2.27,1.84-4.11,4.11-4.11h111.07
				c2.27,0,4.11,1.84,4.11,4.11v104.9C345.92,444.13,344.09,445.97,341.82,445.97z"/>
			<path class="st1" d="M335.41,361.88h-98.26v-14.02c0-1.96,1.59-3.55,3.55-3.55h91.16c1.96,0,3.55,1.59,3.55,3.55V361.88z"/>
			<g>
				<ellipse class="st2" cx="246.41" cy="352.53" rx="3.6" ry="3.5"/>
				<g>
					<g>
						<ellipse class="st3" cx="260.2" cy="352.53" rx="5.48" ry="5.34"/>
						<path class="st1" d="M260.2,347.19c-0.26,0-0.52,0.04-0.77,0.08v4.15c0,0.42,0.34,0.75,0.77,0.75c0.43,0,0.77-0.34,0.77-0.75
							v-4.15C260.72,347.23,260.46,347.19,260.2,347.19z"/>
					</g>
					<g>
						<path class="st3" d="M281.7,352.53c0,2.95-2.46,5.34-5.48,5.34c-3.03,0-5.48-2.39-5.48-5.34c0-2.95,2.46-5.34,5.48-5.34
							C279.25,347.19,281.7,349.58,281.7,352.53z"/>
						<path class="st1" d="M276.22,347.19c-0.26,0-0.52,0.04-0.77,0.08v4.15c0,0.42,0.34,0.75,0.77,0.75c0.43,0,0.77-0.34,0.77-0.75
							v-4.15C276.73,347.23,276.48,347.19,276.22,347.19z"/>
					</g>
					<g>
						<ellipse class="st3" cx="292.23" cy="352.53" rx="5.48" ry="5.34"/>
						<path class="st1" d="M292.23,347.19c-0.26,0-0.52,0.04-0.77,0.08v4.15c0,0.42,0.35,0.75,0.77,0.75c0.43,0,0.77-0.34,0.77-0.75
							v-4.15C292.75,347.23,292.5,347.19,292.23,347.19z"/>
					</g>
					<g>
						<path class="st3" d="M313.74,352.53c0,2.95-2.46,5.34-5.48,5.34s-5.48-2.39-5.48-5.34c0-2.95,2.46-5.34,5.48-5.34
							S313.74,349.58,313.74,352.53z"/>
						<path class="st1" d="M308.25,347.19c-0.26,0-0.52,0.04-0.77,0.08v4.15c0,0.42,0.34,0.75,0.77,0.75c0.43,0,0.77-0.34,0.77-0.75
							v-4.15C308.77,347.23,308.52,347.19,308.25,347.19z"/>
					</g>
					<g>
						<path class="st3" d="M329.75,352.53c0,2.95-2.46,5.34-5.48,5.34c-3.03,0-5.48-2.39-5.48-5.34c0-2.95,2.46-5.34,5.48-5.34
							C327.3,347.19,329.75,349.58,329.75,352.53z"/>
						<path class="st1" d="M324.27,347.19c-0.26,0-0.52,0.04-0.77,0.08v4.15c0,0.42,0.34,0.75,0.77,0.75c0.43,0,0.77-0.34,0.77-0.75
							v-4.15C324.79,347.23,324.53,347.19,324.27,347.19z"/>
					</g>
				</g>
			</g>
			<g>
				<path class="st4" d="M237.15,373.67v56.06c0,3.32,2.76,6.01,6.17,6.01h85.92c3.41,0,6.17-2.69,6.17-6.01v-56.06
					c0-3.32-2.76-6.01-6.17-6.01h-85.92C239.91,367.66,237.15,370.35,237.15,373.67z"/>
				<g>
					<path class="st3" d="M238.73,432.6h-0.8c0.53,0.94,1.3,1.72,2.25,2.27v-0.86h5.75v1.72h1.45v-1.72h5.75v1.72h1.45v-1.72h5.75
						v1.72h1.45v-1.72h5.75v1.72H269v-1.72h5.75v1.72h1.45v-1.72h5.75v1.72h1.45v-1.72h5.75v1.72h1.45v-1.72h5.75v1.72h1.45v-1.72
						h5.75v1.72h1.45v-1.72h5.75v1.72h1.45v-1.72h5.75v1.72h1.45v-1.72h5.75v1.72h1.45v-1.72h5.75v0.86
						c0.95-0.55,1.72-1.33,2.25-2.27h-0.8V427h1.58v-1.41h-1.58v-5.6h1.58v-1.41h-1.58v-5.6h1.58v-1.41h-1.58v-5.6h1.58v-1.41h-1.58
						v-5.6h1.58v-1.41h-1.58v-5.6h1.58v-1.41h-1.58v-5.6h1.58v-1.41h-1.58v-5.6h1.58v-1.41h-1.58v-5.6h0.86
						c-0.53-0.99-1.33-1.81-2.31-2.38v0.97h-5.75v-1.83h-1.45v1.83h-5.75v-1.83h-1.45v1.83h-5.75v-1.83h-1.45v1.83h-5.75v-1.83
						h-1.45v1.83h-5.75v-1.83h-1.45v1.83h-5.75v-1.83h-1.45v1.83h-5.75v-1.83h-1.45v1.83h-5.75v-1.83h-1.45v1.83H269v-1.83h-1.45
						v1.83h-5.75v-1.83h-1.45v1.83h-5.75v-1.83h-1.45v1.83h-5.75v-1.83h-1.45v1.83h-5.75v-0.97c-0.98,0.57-1.78,1.39-2.31,2.38h0.86
						v5.6h-1.58v1.41h1.58v5.6h-1.58v1.41h1.58v5.6h-1.58v1.41h1.58v5.6h-1.58v1.41h1.58v5.6h-1.58v1.41h1.58v5.6h-1.58v1.41h1.58
						v5.6h-1.58v1.41h1.58v5.6h-1.58V427h1.58V432.6z M326.63,370.9h5.75v5.6h-5.75V370.9z M326.63,377.91h5.75v5.6h-5.75V377.91z
						 M326.63,384.93h5.75v5.6h-5.75V384.93z M326.63,391.94h5.75v5.6h-5.75V391.94z M326.63,398.95h5.75v5.6h-5.75V398.95z
						 M326.63,405.96h5.75v5.6h-5.75V405.96z M326.63,412.98h5.75v5.6h-5.75V412.98z M326.63,419.99h5.75v5.6h-5.75V419.99z
						 M326.63,427h5.75v5.6h-5.75V427z M319.42,370.9h5.75v5.6h-5.75V370.9z M319.42,377.91h5.75v5.6h-5.75V377.91z M319.42,384.93
						h5.75v5.6h-5.75V384.93z M319.42,391.94h5.75v5.6h-5.75V391.94z M319.42,398.95h5.75v5.6h-5.75V398.95z M319.42,405.96h5.75
						v5.6h-5.75V405.96z M319.42,412.98h5.75v5.6h-5.75V412.98z M319.42,419.99h5.75v5.6h-5.75V419.99z M319.42,427h5.75v5.6h-5.75
						V427z M312.22,370.9h5.75v5.6h-5.75V370.9z M312.22,377.91h5.75v5.6h-5.75V377.91z M312.22,384.93h5.75v5.6h-5.75V384.93z
						 M312.22,391.94h5.75v5.6h-5.75V391.94z M312.22,398.95h5.75v5.6h-5.75V398.95z M312.22,405.96h5.75v5.6h-5.75V405.96z
						 M312.22,412.98h5.75v5.6h-5.75V412.98z M312.22,419.99h5.75v5.6h-5.75V419.99z M312.22,427h5.75v5.6h-5.75V427z M305.01,370.9
						h5.75v5.6h-5.75V370.9z M305.01,377.91h5.75v5.6h-5.75V377.91z M305.01,384.93h5.75v5.6h-5.75V384.93z M305.01,391.94h5.75v5.6
						h-5.75V391.94z M305.01,398.95h5.75v5.6h-5.75V398.95z M305.01,405.96h5.75v5.6h-5.75V405.96z M305.01,412.98h5.75v5.6h-5.75
						V412.98z M305.01,419.99h5.75v5.6h-5.75V419.99z M305.01,427h5.75v5.6h-5.75V427z M297.81,370.9h5.75v5.6h-5.75V370.9z
						 M297.81,377.91h5.75v5.6h-5.75V377.91z M297.81,384.93h5.75v5.6h-5.75V384.93z M297.81,391.94h5.75v5.6h-5.75V391.94z
						 M297.81,398.95h5.75v5.6h-5.75V398.95z M297.81,405.96h5.75v5.6h-5.75V405.96z M297.81,412.98h5.75v5.6h-5.75V412.98z
						 M297.81,419.99h5.75v5.6h-5.75V419.99z M297.81,427h5.75v5.6h-5.75V427z M290.61,370.9h5.75v5.6h-5.75V370.9z M290.61,377.91
						h5.75v5.6h-5.75V377.91z M290.61,384.93h5.75v5.6h-5.75V384.93z M290.61,391.94h5.75v5.6h-5.75V391.94z M290.61,398.95h5.75
						v5.6h-5.75V398.95z M290.61,405.96h5.75v5.6h-5.75V405.96z M290.61,412.98h5.75v5.6h-5.75V412.98z M290.61,419.99h5.75v5.6
						h-5.75V419.99z M290.61,427h5.75v5.6h-5.75V427z M283.4,370.9h5.75v5.6h-5.75V370.9z M283.4,377.91h5.75v5.6h-5.75V377.91z
						 M283.4,384.93h5.75v5.6h-5.75V384.93z M283.4,391.94h5.75v5.6h-5.75V391.94z M283.4,398.95h5.75v5.6h-5.75V398.95z
						 M283.4,405.96h5.75v5.6h-5.75V405.96z M283.4,412.98h5.75v5.6h-5.75V412.98z M283.4,419.99h5.75v5.6h-5.75V419.99z M283.4,427
						h5.75v5.6h-5.75V427z M276.2,370.9h5.75v5.6h-5.75V370.9z M276.2,377.91h5.75v5.6h-5.75V377.91z M276.2,384.93h5.75v5.6h-5.75
						V384.93z M276.2,391.94h5.75v5.6h-5.75V391.94z M276.2,398.95h5.75v5.6h-5.75V398.95z M276.2,405.96h5.75v5.6h-5.75V405.96z
						 M276.2,412.98h5.75v5.6h-5.75V412.98z M276.2,419.99h5.75v5.6h-5.75V419.99z M276.2,427h5.75v5.6h-5.75V427z M269,370.9h5.75
						v5.6H269V370.9z M269,377.91h5.75v5.6H269V377.91z M269,384.93h5.75v5.6H269V384.93z M269,391.94h5.75v5.6H269V391.94z
						 M269,398.95h5.75v5.6H269V398.95z M269,405.96h5.75v5.6H269V405.96z M269,412.98h5.75v5.6H269V412.98z M269,419.99h5.75v5.6
						H269V419.99z M269,427h5.75v5.6H269V427z M261.79,370.9h5.75v5.6h-5.75V370.9z M261.79,377.91h5.75v5.6h-5.75V377.91z
						 M261.79,384.93h5.75v5.6h-5.75V384.93z M261.79,391.94h5.75v5.6h-5.75V391.94z M261.79,398.95h5.75v5.6h-5.75V398.95z
						 M261.79,405.96h5.75v5.6h-5.75V405.96z M261.79,412.98h5.75v5.6h-5.75V412.98z M261.79,419.99h5.75v5.6h-5.75V419.99z
						 M261.79,427h5.75v5.6h-5.75V427z M254.59,370.9h5.75v5.6h-5.75V370.9z M254.59,377.91h5.75v5.6h-5.75V377.91z M254.59,384.93
						h5.75v5.6h-5.75V384.93z M254.59,391.94h5.75v5.6h-5.75V391.94z M254.59,398.95h5.75v5.6h-5.75V398.95z M254.59,405.96h5.75
						v5.6h-5.75V405.96z M254.59,412.98h5.75v5.6h-5.75V412.98z M254.59,419.99h5.75v5.6h-5.75V419.99z M254.59,427h5.75v5.6h-5.75
						V427z M247.39,370.9h5.75v5.6h-5.75V370.9z M247.39,377.91h5.75v5.6h-5.75V377.91z M247.39,384.93h5.75v5.6h-5.75V384.93z
						 M247.39,391.94h5.75v5.6h-5.75V391.94z M247.39,398.95h5.75v5.6h-5.75V398.95z M247.39,405.96h5.75v5.6h-5.75V405.96z
						 M247.39,412.98h5.75v5.6h-5.75V412.98z M247.39,419.99h5.75v5.6h-5.75V419.99z M247.39,427h5.75v5.6h-5.75V427z M240.18,370.9
						h5.75v5.6h-5.75V370.9z M240.18,377.91h5.75v5.6h-5.75V377.91z M240.18,384.93h5.75v5.6h-5.75V384.93z M240.18,391.94h5.75v5.6
						h-5.75V391.94z M240.18,398.95h5.75v5.6h-5.75V398.95z M240.18,405.96h5.75v5.6h-5.75V405.96z M240.18,412.98h5.75v5.6h-5.75
						V412.98z M240.18,419.99h5.75v5.6h-5.75V419.99z M240.18,427h5.75v5.6h-5.75V427z"/>
				</g>
			</g>
			<path class="st1" d="M329.24,367.66c3.41,0,6.17,2.69,6.17,6.01v56.06c0,3.32-2.76,6.01-6.17,6.01h-85.92
				c-3.41,0-6.17-2.69-6.17-6.01v-56.06c0-3.32,2.76-6.01,6.17-6.01H329.24 M329.24,366.16h-85.92c-4.25,0-7.71,3.37-7.71,7.51
				v56.06c0,4.14,3.46,7.51,7.71,7.51h85.92c4.25,0,7.71-3.37,7.71-7.51v-56.06C336.96,369.53,333.5,366.16,329.24,366.16
				L329.24,366.16z"/>
			<g>
				<path class="st3" d="M270.79,332.84h-10.08v-4c0-1.66,1.34-3,3-3h7.08V332.84z"/>
				<path class="st3" d="M301.77,332.84h10.08v-4c0-1.66-1.34-3-3-3h-7.08V332.84z"/>
				<rect x="270.79" y="325.84" class="st1" width="31.44" height="7.01"/>
			</g>
		</g>
		<path class="st3" d="M136.3,440.43c-8.41,0-17.43-0.78-27.17-2.35c-9.58-1.54-20.56-3.95-29.28-10.17
			c-12.36-8.81-19.36-25.06-18.27-42.41c1.22-19.4,12.26-38.2,28.83-49.05l2.35,3.4c-15.5,10.16-25.84,27.75-26.98,45.91
			c-1,15.97,5.34,30.85,16.56,38.85c8,5.71,18.38,7.97,27.48,9.43c22.71,3.65,41.38,2.95,57.09-2.14
			c19.41-6.29,34.58-20.29,39.58-36.55c1.28-4.17,1.98-8.64,2.65-12.95c0.87-5.57,1.76-11.33,3.92-16.76
			c4.11-10.34,15.33-19.45,26.29-16.14c2.02,0.61,3.32,1.64,3.87,3.07c0.5,1.28,0.14,2.83-0.88,3.85c-0.9,0.9-2.18,1.23-3.35,0.83
			c-1.11-0.37-1.82-1.33-1.86-2.49c-0.02-0.53,0.11-1.05,0.34-1.52c-8.45-2.05-17.15,5.46-20.49,13.87
			c-1.99,5.01-2.82,10.3-3.69,15.9c-0.69,4.46-1.41,9.07-2.78,13.52c-5.39,17.51-21.59,32.56-42.28,39.26
			C158.68,438.89,148.1,440.43,136.3,440.43z M240.66,353.52l-1.78,1.65c0.44,0.45,1.17,0.59,1.78,0.34
			c0.32-0.13,0.7-0.39,0.68-0.88C241.33,354.19,241.06,353.76,240.66,353.52z"/>
	</g>
	<g>
		<path class="st5" d="M211.19,189.32c7.96,10.18,27.67,43.49,27.67,43.49s11.56,1.76,48.69,6.61c5.36,0.7,2.89,15.69,2.89,15.69
			l-43.72,11.66c-6.86,2.27-15.54,0.08-21.54-5.44c-2.04-1.87-4.34-4.05-6.8-6.44c-16.78-15.27-42.68-42.64-45.2-61.56
			c-1.38-10.33,1.09-39.51,13.74-32.01C193.08,164.98,199.74,174.67,211.19,189.32z"/>
		<path class="st6" d="M173.17,193.34c-1.38-10.33,1.09-39.51,13.74-32.01c6.16,3.65,12.83,13.35,24.28,28
			c2.15,2.76,5.17,7.21,8.42,12.24c-8.87,2.91-20.26,7.98-34.65,16.65C178.76,209.45,174.16,200.74,173.17,193.34z"/>
	</g>
	<g>
		<path class="st7" d="M204.49,339.65c0,0-9.59-90.16-12.33-95.17c-2.1-3.83-15.63-4.56-15.63-4.56s-13.33,4.58-25.43,15.06h-35.39
			c-1.12,1.39-10.12,12.91-14.65,28.49c-3.69,12.67-0.97,28.14,3.73,42.34c0.91,2.74,1.1,5.68,0.7,8.56
			c-2.92,21.2-7.32,42.94-8.45,49.01c-2.26,12.15-0.81,61.07-0.81,61.07l20.36-1.48l40.06-105.23l9.64,26.63
			c0,0-7.04,18.75,0.92,45.86c2.64,8.98,17.82,40.61,17.82,40.61l18.92,0.18l2.55-91.09C206.74,353.1,206.06,346.28,204.49,339.65z"
			/>
		<path class="st5" d="M95.77,413.39c0,15.67,0.46,31.07,0.46,31.07l20.36-1.48l10.33-27.14
			C113.25,417.8,103.07,416.12,95.77,413.39z"/>
		<path class="st8" d="M95.88,428.01c0.13,9.4,0.34,16.45,0.34,16.45l20.36-1.48l5.25-13.79
			C110.41,430.03,101.69,429.14,95.88,428.01z"/>
		<path class="st5" d="M170.38,418.64c5.3,12.73,14.65,32.22,14.65,32.22l18.92,0.18l1.02-36.4
			C190.64,417.99,178.61,418.72,170.38,418.64z"/>
		<path class="st8" d="M175.44,430.23c4.71,10.45,9.59,20.63,9.59,20.63l18.92,0.18l0.71-25.32
			C193.39,430.81,183.03,431.16,175.44,430.23z"/>
		<g>
			<path class="st2" d="M124.1,452.58c-0.3-1.25-1.68-5.08-1.91-5.83c-0.28-0.91-0.15-1.91-0.36-2.84c-0.2-0.89-0.72-1.69-1.45-2.24
				c-0.41-0.31-0.92-0.55-1.46-0.53c-0.51,0.02-1.05,0.37-1.55,0.86l-0.49-1.58c-1.07-3.43-4.28-5.73-8.01-5.73
				c-3.55,0-6.85,2.08-8.36,5.28l-1.24,2.64c-0.04,0.01-0.07,0.03-0.11,0.04c-0.61-0.99-1.39-1.8-2.2-1.84
				c-0.53-0.02-1.06,0.21-1.51,0.53c-0.78,0.55-1.38,1.35-1.66,2.24c-0.3,0.91-0.27,1.89-0.62,2.79c-4.49,3.93-7.51,9.74-7.82,16.22
				c-0.56,11.85,8.55,11.43,19.77,11.43s20.29,0.42,20.86-11.43C126.16,458.98,125.46,455.58,124.1,452.58z"/>
			<path class="st8" d="M125.98,462.61c0.09-1.83-2.82-13.31-19.68-13.31c-11.17,0-17.74,7.43-20.85,12.32
				c-0.03,0.33-0.08,0.66-0.1,1c-0.56,11.85,8.55,11.43,19.77,11.43S125.42,474.45,125.98,462.61z"/>
		</g>
		<g>
			<path class="st9" d="M187.71,162.82c-6.19-7.42-27.89-12.21-37.86-12.2c-7.66,0.01-23.78,3.64-28.84,10.07
				c-12.06,15.32-7.26,54.85-7.26,54.85l-4.8,47.77c0,0,22.7,11.37,50.74,8.95c7.93-0.68,32.7-9.21,33.68-15.92
				c1.02-6.96,1.39-17.74-0.61-33.95C188.88,190.96,196.22,173.02,187.71,162.82z"/>
		</g>
		<path class="st6" d="M193.46,228.79c-7.06,8.66-19.37,12.29-33.3,11.39c-14.48-0.94-25.27-13.46-24.29-27.55l2.92-42.23
			c0,0-7.34-4.84-16.72-10.85c-0.39,0.37-0.74,0.75-1.04,1.14c-12.06,15.32-7.26,54.85-7.26,54.85l-4.64,46.19l0,0l-0.16,1.59
			c0,0,22.7,11.37,50.74,8.95c7.93-0.68,32.7-9.21,33.68-15.92C194.26,250.36,194.65,241.51,193.46,228.79z"/>
		<g>
			<g>
				<path class="st10" d="M142.96,151.27l1.68-26.75l27.98,9.54l0.84,20.87c2.38,0.84,3.72,1.25,5.83,2.26
					c3.98,8.27,9.75,24.13-0.1,25.96c-15.29,2.84-17.61-18.51-43.19-30.36C138.78,152,140.13,151.67,142.96,151.27z"/>
			</g>
		</g>
		<g>
			<g>
				<path class="st2" d="M179.39,441.55c-0.13-0.95,1.28-1.45,1.97-0.7c1.15,1.26,2.47,2.43,4.44,2.79
					c6.28,1.13,9.05-6.71,14.31-9.35c5.26-2.65,10.79,7.83,10.79,7.83c0.46-0.03,0.95-0.07,1.45-0.11c0,0.04-0.01,0.07-0.01,0.11
					c9.6-2.27,21.62-3.78,31.09,6.52c3.45,3.75,5.18,10.93,4.23,17.93c0,0-1.64,3.05-20.88,3.56c-10.67,0.28-27.1-1.62-42.16-9.24
					c-1.71-0.87-2.88-2.34-3.11-4.03L179.39,441.55z"/>
				<path class="st8" d="M247.88,463.46c0.01-0.55,0.01-1.1-0.01-1.65c-0.01-0.26-0.02-0.53-0.03-0.79c0-0.06-0.01-0.11-0.02-0.17
					c-0.04-0.58-0.09-1.15-0.16-1.71c-0.02-0.13-0.02-0.27-0.04-0.4c0,0,0,0,0,0c-0.59-4.12-2.06-7.78-4.21-10.11
					c-3.01-3.28-6.29-5.35-9.66-6.6c-0.77-0.08-1.45-0.18-1.99-0.33c-7.41,4.02-12.28,10.84-12.28,18.58c0,2.36,0.5,4.61,1.35,6.74
					c-7.78-0.36-21.33-1.98-34.41-8.74c-0.47-0.24-0.87-0.42-1.24-0.58v-0.01c0,0-1.58-0.89-3.76-1.37l0.07,0.52
					c0.05,0.38,0.17,0.74,0.31,1.1c0.04,0.1,0.1,0.21,0.15,0.31c0.12,0.25,0.27,0.5,0.44,0.73c0.07,0.09,0.13,0.19,0.2,0.28
					c0.25,0.3,0.52,0.59,0.84,0.85c0,0,0,0,0,0c0,0,0.01,0,0.01-0.01c0.35,0.29,0.74,0.55,1.17,0.77c0.02,0.01,0.04,0.02,0.06,0.03
					c0.87,0.44,1.74,0.85,2.61,1.25c0.3,0.14,0.6,0.26,0.9,0.4c0.6,0.26,1.2,0.53,1.8,0.77c0.35,0.15,0.71,0.28,1.06,0.42
					c0.55,0.22,1.1,0.43,1.65,0.64c0.37,0.14,0.74,0.27,1.11,0.4c0.54,0.19,1.07,0.38,1.61,0.56c0.37,0.12,0.75,0.25,1.12,0.37
					c0.54,0.17,1.09,0.34,1.63,0.5c0.36,0.11,0.71,0.22,1.07,0.32c0.59,0.17,1.17,0.32,1.75,0.47c0.31,0.08,0.62,0.17,0.93,0.25
					c0.86,0.22,1.72,0.42,2.57,0.61c0.32,0.07,0.63,0.13,0.95,0.2c0.55,0.12,1.1,0.23,1.64,0.34c0.41,0.08,0.81,0.15,1.22,0.22
					c0.44,0.08,0.88,0.16,1.32,0.23c0.43,0.07,0.87,0.14,1.3,0.2c0.39,0.06,0.79,0.12,1.17,0.17c0.45,0.06,0.89,0.12,1.33,0.18
					c0.35,0.04,0.7,0.09,1.05,0.12c0.46,0.05,0.92,0.1,1.38,0.15c0.3,0.03,0.59,0.05,0.88,0.08c0.49,0.04,0.98,0.09,1.46,0.12
					c0.17,0.01,0.33,0.02,0.5,0.03c1.26,0.09,2.48,0.15,3.66,0.18c0,0,0,0,0,0c0,0,0,0,0.01,0c0.02,0,0.05,0,0.07,0
					c0.71,0.02,1.41,0.03,2.09,0.03c0.05,0,0.1,0,0.15,0c0.03,0,0.06,0,0.1,0c0.7,0,1.38-0.01,2.04-0.03
					c19.23-0.5,20.88-3.56,20.88-3.56c0.11-0.79,0.17-1.58,0.21-2.36C247.87,463.95,247.87,463.7,247.88,463.46z"/>
			</g>
		</g>
	</g>
	<g>
		<g>
			<path class="st11" d="M193.5,164.34c0,0,13.76,40.75,0.52,95.87l-5.86-7.96c0,0,8.78-72.79-8.47-96.54
				C179.7,155.7,186.72,156.98,193.5,164.34z"/>
			<g>
				<path class="st12" d="M156.06,327.79c9.19-16.83,18.72-16.35,18.72-16.35c19.25,2.98,31.47-1.49,31.47-1.49
					c20.43-6.96,17.55-29.22,14.13-41.62l105.17-38.58l2.71,3.17l5.06-1.11c-0.16,0.45-0.19,0.9-0.05,1.33
					c0.51,1.62,3.09,2.3,5.75,1.5c2.67-0.79,4.42-2.75,3.91-4.38c-0.06-0.18-0.15-0.35-0.25-0.5l4.63-1.01
					c-0.39,0.63-0.53,1.3-0.33,1.92c0.51,1.62,3.09,2.3,5.75,1.5c2.67-0.79,4.42-2.75,3.91-4.38c-0.12-0.37-0.35-0.68-0.66-0.95
					l6.13-1.34c-0.7,0.79-1.01,1.69-0.76,2.5c0.51,1.62,3.09,2.3,5.75,1.5c2.67-0.79,4.42-2.75,3.91-4.38
					c-0.18-0.56-0.61-1-1.2-1.31l0.73-0.16l4.76-6.39l-5.59-17.82l-7.74-3.09l-2.29,0.83c1.23-0.93,1.88-2.13,1.55-3.2
					c-0.51-1.62-3.09-2.3-5.75-1.5c-2.67,0.79-4.42,2.75-3.91,4.38c0.4,1.27,2.06,1.95,4.04,1.81l-8.28,3.01
					c0.47-0.68,0.67-1.41,0.45-2.09c-0.51-1.62-3.09-2.3-5.75-1.5c-2.67,0.79-4.42,2.75-3.91,4.38c0.28,0.88,1.17,1.47,2.35,1.71
					l-5.47,1.99c0.11-0.39,0.12-0.78,0-1.16c-0.51-1.62-3.09-2.3-5.75-1.5c-2.67,0.79-4.42,2.75-3.91,4.38
					c0.18,0.58,0.63,1.03,1.25,1.34l-2.18,0.79l-1.65,5.05l-107.89,35.74c-4.39-12.19-14.78-31.63-35.45-26.35
					c0,0-12.7,2.95-26.95,15.89c0,0-7.62,5.58-24.9-3.37c-13.29-6.88-34.53-0.62-43.65,2.65c-3.34,1.2-6.41,3-8.95,5.43
					c-7.95,7.57-22.45,26.94-10.85,60.44c9.42,33.38,31.8,41.91,43.01,44.08c3.74,0.73,7.56,0.64,11.26-0.25
					C127.82,347.08,149,340.71,156.06,327.79z"/>
				<polygon class="st13" points="130.52,311.21 122.49,313.76 108.57,272.15 116.6,269.6 				"/>
				<g>
					<path class="st13" d="M177.08,296.86c-12.11,3.6-24.92-3.03-28.62-14.82c-3.7-11.78,3.11-24.26,15.22-27.86
						c12.11-3.6,24.92,3.03,28.62,14.82C196,280.79,189.18,293.26,177.08,296.86z"/>
					<path class="st14" d="M176.13,293.84c-10.39,3.09-21.39-2.6-24.57-12.72c-3.18-10.12,2.67-20.82,13.07-23.91
						c10.39-3.09,21.39,2.6,24.57,12.72C192.37,280.04,186.52,290.75,176.13,293.84z"/>
				</g>
				<path class="st15" d="M369.8,223.81l0.73-0.16l4.76-6.39l-5.59-17.82l-7.74-3.09l-2.29,0.83c1.23-0.93,1.88-2.13,1.55-3.2
					c-0.51-1.62-3.09-2.3-5.75-1.5c-2.67,0.79-4.42,2.75-3.91,4.38c0.4,1.27,2.06,1.95,4.04,1.81l-8.28,3.01
					c0.47-0.68,0.67-1.41,0.45-2.09c-0.51-1.62-3.09-2.3-5.75-1.5c-2.67,0.79-4.42,2.75-3.91,4.38c0.28,0.88,1.17,1.47,2.35,1.71
					l-5.47,1.99c0.11-0.39,0.12-0.78,0-1.16c-0.51-1.62-3.09-2.3-5.75-1.5c-2.67,0.79-4.42,2.75-3.91,4.38
					c0.18,0.58,0.63,1.03,1.25,1.34l-2.18,0.79l-1.65,5.05l-139.6,46.08l5.24,18.49l47.76-17.37v0.28l89.39-32.79l2.71,3.17
					l5.06-1.11c-0.16,0.45-0.19,0.9-0.05,1.33c0.51,1.62,3.09,2.3,5.75,1.5c2.67-0.79,4.42-2.75,3.91-4.38
					c-0.06-0.18-0.15-0.35-0.25-0.5l4.63-1.01c-0.39,0.63-0.53,1.3-0.33,1.92c0.51,1.62,3.09,2.3,5.75,1.5
					c2.67-0.79,4.42-2.75,3.91-4.38c-0.12-0.37-0.35-0.68-0.66-0.95l6.13-1.34c-0.7,0.79-1.01,1.69-0.76,2.5
					c0.51,1.62,3.09,2.3,5.75,1.5c2.67-0.79,4.42-2.75,3.91-4.38C370.82,224.56,370.39,224.13,369.8,223.81z"/>
				<g class="st16">
					<line class="st17" x1="117.04" y1="287.06" x2="323.29" y2="217.9"/>
					<line class="st17" x1="117.04" y1="291.68" x2="323.93" y2="221.29"/>
					<line class="st17" x1="117.04" y1="296.16" x2="324.58" y2="224.68"/>
					<line class="st17" x1="117.74" y1="301.16" x2="325.28" y2="228.35"/>
				</g>
				<line class="st17" x1="322.01" y1="215.07" x2="325.54" y2="229.75"/>
			</g>
		</g>
		<g>
			<path class="st18" d="M305.84,242.46c0.38-1.72,1.09-3.43,1.77-5.13c2.55-1.55,7.51-4.4,10.62-5.05
				c2.96-0.62,4.41,1.91,4.41,1.91s-6.39,5.95-10.99,10.2C311.1,244.9,307.6,243.19,305.84,242.46z"/>
			<g>
				<path class="st5" d="M280.62,256.97c9.41,0.41,28.01-9.91,29.05-10.69c0.2-0.13,0.37-0.25,0.48-0.37
					c0.96-0.82,1.8-1.87,2.49-3.2c4.65-10.83,3.37-20.74,1.36-21.09c-2.98-0.51-6.81,13.39-7.7,16.37
					c0.75-2.97,0.15-13.44-2.87-14.75c-3.14-1.24-2.86,8.43-3.42,12.64c0.01-3.41-2.23-12-5.25-12.58
					c-2.78-0.42-2.02,12.99-2.11,12.93c0.1,0.05-1.39-7.97-4.6-9.08c-3.02-1-2.54,8.38-2.56,10.47c-0.12,0.03-0.83,0.05-1.85,0.2
					c-5.08,0.77-9.33,4.56-10.15,9.5C272.93,250.66,272.12,258.16,280.62,256.97z"/>
			</g>
		</g>
	</g>
	<g>
		<path class="st19" d="M149.46,143.2l9.04-21.51l-40.55-9.23"/>
		<polygon class="st5" points="203.6,91.6 213.97,79.16 216,94.93 		"/>
		<g>
			<path class="st18" d="M220.26,112.76c-0.79-0.78-1.15-1.85-1.25-2.92c-0.91-0.99-2-1.82-3.28-2.42
				c-6.37-2.99-14.82,0.66-18.87,8.14c-4.05,7.48-2.18,15.97,4.19,18.95c6.37,2.99,14.82-0.66,18.88-8.14
				c2.37-4.37,2.7-9.07,1.31-12.83C220.88,113.3,220.55,113.05,220.26,112.76z"/>
			<path class="st5" d="M212.29,128.8l4.99-21.5c-2.71-1.42,20.06-37.61-53.36-40.38c-25.6-6.56-33.02,7.38-33.02,7.38l-1.43,35.19
				l-0.54-1.19l-0.25,1.02c-5.28,21.49,8.75,39.71,32.24,48.65C185.2,167.22,217.57,155.06,212.29,128.8z"/>
			<g>
				<path class="st5" d="M142.37,100.77c2.71,9.71-1.73,19.08-9.92,20.94c-8.19,1.86-17.03-4.51-19.74-14.22
					c-2.71-9.71,1.73-19.08,9.92-20.94C130.82,84.7,139.66,91.07,142.37,100.77z"/>
				<path class="st18" d="M134.11,116.18c0.06-0.36,0.06-0.67,0.1-1.02c-0.01,0.26-0.02,0.47-0.04,0.64
					c0.38-1.76,0.46-3.25,0.26-4.49c-0.24-15.42-14.48-20.28-14.48-20.28c6.37,5.88,9.87,11.54,11.79,16
					c-4.76-3.21-13.91-0.89-13.91-0.89c10.21-0.13,14.1,2.85,15.55,5.6C134.11,114.51,134.11,116.18,134.11,116.18z"/>
			</g>
			<g>
				<g>
					<g>
						<path class="st20" d="M218,110.63c0,0-8.01-8.2-13.25-9.82c0,0,4.14-7.74,10.22-2.94C221.05,102.66,218,110.63,218,110.63z"/>
					</g>
					<g>
						<path class="st20" d="M167.44,100.54c0,0,15.06-3.88,22.43-3.07c0,0,0.79-8.82-9.7-7.15
							C169.67,91.99,167.44,100.54,167.44,100.54z"/>
					</g>
				</g>
				<g>
					<path class="st21" d="M177.29,127.11c-0.77,1.27-1.33,2.68-1.62,4.22c-1.31,6.87,3.21,13.44,10.09,14.69
						c6.01,1.09,11.84-2.26,14.09-7.71L177.29,127.11z"/>
					<path class="st22" d="M185.76,146.02c2.13,0.38,4.23,0.2,6.17-0.42c-0.11-5.61-4.56-10.63-10.83-11.76
						c-1.94-0.35-3.86-0.28-5.64,0.12C175.57,139.8,179.77,144.93,185.76,146.02z"/>
				</g>
			</g>
		</g>
	</g>
	<g>
		<g>
			<g>
				<path class="st5" d="M67.59,227.78c-1.4-18.78,40.89-69.47,66.52-74.41c5.75-1.11,5.07,15.19,3.8,20.91
					c-3.87,17.35-37.74,53.51-37.74,53.51l14.99,60.5c9.15,3.93,18.68,10.31,19.41,10.96c0.2,0.15,0.38,0.3,0.49,0.44
					c0.5,0.51,0.96,1.09,1.38,1.74c0.03,0.02,0.08,0.02,0.1,0.04c4.57,4.98,10.92,11.95,10.92,11.95s-1.79,2.6-4.93,1.68
					c-0.89-0.26-1.9-0.71-2.97-1.26c0.52,7.13-1.04,12.23-2.57,12.38c-3.26,0.3-6.13-15.02-6.82-18.32
					c0.54,3.27-1.06,14.51-4.44,15.66c-3.49,1.07-2.32-9.34-2.54-13.93c-0.3,3.68-3.49,12.75-6.8,13.12
					c-3.04,0.22-1-14.18-1.1-14.13c0.12-0.05-2.23,8.48-5.79,9.4c-3.35,0.82-1.97-9.26-1.81-11.52c-0.13-0.04-0.89-0.13-1.98-0.38
					c-5.41-1.26-9.65-5.73-10.09-11.13c-0.13-1.57-0.24-3.99,0.42-6.07C87.79,275.51,68.73,243.16,67.59,227.78z"/>
			</g>
			<path class="st10" d="M67.59,227.78c0.21,2.86,1.05,6.31,2.32,10.12c2.43-3.05,3.89-6.87,3.89-11.04c0-3.99-1.34-7.66-3.59-10.64
				C68.33,220.7,67.35,224.68,67.59,227.78z"/>
		</g>
		<path class="st9" d="M122.27,201.5c7.33-9.7,14.04-20.07,15.63-27.23c1.28-5.71,1.96-22.02-3.8-20.91
			c-12.98,2.5-30.21,16.73-43.9,32.6C100.06,186.82,112.53,190.41,122.27,201.5z"/>
	</g>
</g>
<g>
	<path d="M218.96,109.19c0.01-1.23,0.75-2.6,1.67-3.42c0.09-0.07,0.18-0.12,0.27-0.19c1.59-7.78,6.96-28.78,3.46-38.99
		c-0.96-2.81-15.62-19.92-37.88-22.31c-8.82-0.95-16.68,2.76-26.17,7.25c-10.07,4.75-14.87,9.63-16.24,11.08
		c-4.74,5-7.32,9.99-8.6,12.53c-3.24,6.39-5.16,10.17-5.32,15.49c0,0-0.21,6.66-1.86,14.67c-0.06,0.28-0.15,0.66-0.29,0.91
		c0.82,0.78,1.88,1.66,2.79,1.43c2.57-0.64,0.73-9.11,4.82-17.52c2.32-4.77,5.55-7.47,9.54-10.81c2.82-2.36,8.77-7.22,17.54-9.28
		c5.89-1.39,10.19-0.83,18.76,0.27c5.53,0.71,11.15,1.48,17.93,4.38c5.32,2.28,9.68,4.15,13.33,8.81c4.34,5.53,5.18,11.8,5.48,14.18
		c1.44,11.78-5.26,8.86-1.15,13.85c0.95,1.16,0.72,1.95,2.04-1.19C219,109.96,218.96,109.57,218.96,109.19z"/>
	<g>
		<g>
			<g>
				<g>
					<path class="st23" d="M216.55,109.42c0.01-0.32-0.4-0.21-0.48-0.26C216.21,109.66,216.66,109.43,216.55,109.42z"/>
					<path class="st23" d="M217.38,108.75l0.17,0.1c-0.12-0.24-0.12-0.48-0.11-0.75C217.39,108.32,217.35,108.53,217.38,108.75z"/>
					<path class="st23" d="M219.85,101.75c-0.41,0.37-0.36,1.08-0.46,1.93c-0.03,0.42-0.06,0.87-0.18,1.31
						c-0.09,0.44-0.24,0.85-0.47,1.18l-0.25,0.16c0.08,0.3,0.12,0.59,0.17,0.9c0.24-0.43,0.42-0.94,0.58-1.45
						c0.13-0.51,0.25-1.04,0.32-1.53C219.69,103.25,219.71,102.37,219.85,101.75z"/>
					<path class="st23" d="M221.2,97.31c-0.25,0.31-0.32-0.92,0.01,1.04c0.02-0.1,0.04-0.13,0.05-0.19
						C221.24,97.98,221.21,97.73,221.2,97.31z"/>
					<path class="st23" d="M221.26,98.16C221.35,99.03,221.44,97.57,221.26,98.16L221.26,98.16z"/>
					<path class="st23" d="M220.54,94.28l0.45,1.07c0.13-0.26-0.03-1.27,0.16-0.92C220.78,93.29,220.67,93.58,220.54,94.28z"/>
					<path class="st23" d="M219.81,93.34l0.23,0.54C220.08,93.77,220.07,93.62,219.81,93.34z"/>
					<path class="st23" d="M220.49,95.05c-0.14-0.39-0.3-0.78-0.45-1.17c-0.08,0.18-0.3,0.24,0.19,0.54
						C220,94.37,220.25,94.56,220.49,95.05z"/>
					<path class="st23" d="M220.5,95.76c-0.05,0.65-0.05,1.44-0.45,0.38C220.42,98.19,220.89,97.85,220.5,95.76z"/>
					<path class="st23" d="M219.13,101.31c-0.06,0.27-0.18,0.54-0.26,0.8l0.18,0.73C218.96,102.48,219.39,101.27,219.13,101.31z"/>
					<path class="st23" d="M218.75,87.35c-0.16,0-0.21,0.52-0.36,0.68l0.49,0.72C218.8,88.3,218.58,87.49,218.75,87.35z"/>
					<path class="st23" d="M218.39,88.02c-0.23-0.36-0.5-0.7-0.76-1.04C218.08,88.01,218.26,88.16,218.39,88.02z"/>
					<path class="st23" d="M218.99,93.33c0.33,0.6,0.65,1.22,0.94,1.84c-0.32-0.75-0.67-1.49-1.04-2.21L218.99,93.33z"/>
					<path class="st23" d="M216.36,83.01l0.7,0.43c-0.4-0.28-0.78-0.55-1.18-0.8C216.05,82.75,216.2,82.88,216.36,83.01z"/>
					<path class="st23" d="M214.29,80.42c0.6,0.22-0.15-0.9,0.38-0.58c-0.66-0.66-1.41-1.05-2.08-1.36
						C213.23,78.89,213.78,79.49,214.29,80.42z"/>
					<path class="st23" d="M211.49,77.95c0.33,0.17,0.7,0.34,1.1,0.53C212.25,78.26,211.9,78.07,211.49,77.95z"/>
					<path class="st23" d="M216.7,85.05c0.03-0.13,0.15-0.42-0.14-1.09c-0.02,0.22-0.07,0.44-0.1,0.65
						C216.52,84.75,216.61,84.9,216.7,85.05z"/>
					<path class="st23" d="M216.45,84.64l0-0.02c-0.26-0.47-0.48-0.78-0.56-0.92C215.96,83.82,216.15,84.09,216.45,84.64z"/>
					<path class="st23" d="M216.76,85.16c-0.02-0.04-0.04-0.07-0.06-0.11C216.68,85.12,216.69,85.15,216.76,85.16z"/>
					<path class="st23" d="M218.47,90.16c-0.47-0.61-1.24-1.88-1.07-0.42C217.85,90.12,217.76,89.27,218.47,90.16z"/>
					<path class="st23" d="M216.59,85.96c0.17,0.41,0.36,0.8,0.51,1.21c0.09-0.07,0.14-0.36,0.4-0.08
						C217.22,86.69,216.89,86.33,216.59,85.96z"/>
					<path class="st23" d="M216.16,85.46c0.15,0.16,0.3,0.32,0.43,0.49c-0.06-0.15-0.13-0.3-0.2-0.44L216.16,85.46z"/>
					<path class="st23" d="M212.97,79.85c-0.55-0.29-1.02-0.72-1.59-1.18c0.53,0.58,1.08,1.16,1.6,1.71
						C213.14,80.37,213.57,80.44,212.97,79.85z"/>
					<path class="st23" d="M214.78,82.11c-0.03-0.03-0.07-0.06-0.1-0.09C214.7,82.11,214.73,82.17,214.78,82.11z"/>
					<polygon class="st23" points="205.53,74.87 205.59,74.99 205.65,74.93 					"/>
					<path class="st23" d="M213.01,80.53c0.33,0.48,0.64,0.66,0.95,0.84c-0.3-0.31-0.65-0.62-0.98-0.99
						C212.9,80.39,212.87,80.41,213.01,80.53z"/>
					<path class="st23" d="M209.76,76.88c0.2,0.24,0.43,0.52,0.68,0.79C210.29,77.39,209.92,76.84,209.76,76.88z"/>
					<path class="st23" d="M214.65,81.8c0.02,0.02,0.05,0.04,0.07,0.06C214.67,81.65,214.65,81.69,214.65,81.8z"/>
					<path class="st23" d="M214.65,81.8c-0.24-0.19-0.47-0.31-0.69-0.43c0.25,0.25,0.5,0.47,0.72,0.66
						C214.66,81.95,214.65,81.86,214.65,81.8z"/>
					<path class="st23" d="M202.55,76.48c0.24-0.33,1.67-0.07,2.53,0.86c1.17,0.3,1.15-1.21,0.51-2.36
						c-0.11,0.14-0.19,0.26-1.41-0.06c0.31,0.36,2.24,1.7,1.15,1.53c-1.55-0.56-1.13-0.72-1.76-1.25c0.4,0.72-2.17-0.2-2.14,0.62
						l1.38,0.34C202.78,76.27,202.24,76.23,202.55,76.48z"/>
					<path class="st23" d="M207.72,76.2l0.48,0.24c-0.49-0.39-0.78-0.74-1.34-1.4c-0.88-0.26-1.11-0.19-1.22-0.11
						c0.76,0.4,1.52,0.85,2.27,1.31L207.72,76.2z"/>
					<path class="st23" d="M210.22,77.83c-0.6,0.07-1.75-0.49-1.38,0.33c1.26,0.88,1.09,0.35,1.93,0.8
						c-2.06-1.52,0.74,0.26-0.57-1.08c0.45,0.24,0.82,0.53,1.17,0.79c-0.33-0.33-0.63-0.69-0.93-1c0.01,0.02,0.02,0.04,0.03,0.06
						l0.01,0.01l-0.01,0c0.06,0.11,0.07,0.16-0.02,0.06c-0.01,0-0.04-0.02-0.05-0.03C210.37,77.8,210.3,77.82,210.22,77.83
						c-0.55-0.52-0.03-0.16,0.19-0.06c0.02-0.01,0.05-0.02,0.07-0.03l0-0.01c-0.75-0.47-1.5-0.91-2.27-1.28
						C208.63,76.79,209.22,77.13,210.22,77.83z"/>
					<path class="st23" d="M216.06,88.9c0.01-0.08,0.04-0.09,0.06-0.11C216.02,88.67,215.96,88.63,216.06,88.9z"/>
					<path class="st23" d="M215.89,87.9c0.13,0.13,0.35,0.19,0.54,0.73c0.07,0.51-0.19,0.08-0.31,0.16
						c0.23,0.26,0.75,0.99,0.52-0.09l-0.12-0.13c-0.25-0.94-0.37-2.32-0.24-2.2C216.07,86.8,215.97,87.15,215.89,87.9z"/>
					<path class="st23" d="M213.62,82.63c-0.49-0.5-0.99-0.97-1.51-1.42l0.42,1.02l0.13-0.19
						C213.33,82.99,213.39,82.63,213.62,82.63z"/>
					<path class="st23" d="M205.41,74.57l0.45-0.28c-0.46,0-0.91,0.03-1.36,0.05L205.41,74.57z"/>
					<polygon class="st23" points="202.98,73.49 203.23,73.17 202.5,73.11 					"/>
					<path class="st23" d="M142.18,61.15l0.34-0.52C142.34,60.86,142.24,61.02,142.18,61.15z"/>
					<path class="st23" d="M139.3,64.46l0.09,0.2C139.43,64.44,139.42,64.33,139.3,64.46z"/>
					<path class="st23" d="M141.71,78.94c-0.89,0.27-2.01,0.51-1.64,0.77l0.49,0.14C140.97,79.39,141.35,79.12,141.71,78.94z"/>
					<path class="st23" d="M129.46,97.4c-0.05,0.07-0.11,0.15-0.16,0.23c0.12,0.22,0.24,0.43,0.34,0.61
						C129.58,97.99,129.52,97.71,129.46,97.4z"/>
					<path class="st23" d="M127.74,96.61l0.4-1.05C128.02,95.79,127.89,96.13,127.74,96.61z"/>
					<path class="st23" d="M161.64,47.77l0.43-0.69C161.11,47.53,161.63,47.54,161.64,47.77z"/>
					<path class="st23" d="M176.97,67.35c-0.71-0.25-1.29-0.39-1.81-0.46C176.04,67.23,176.7,67.69,176.97,67.35z"/>
					<path class="st23" d="M144.49,65.46c0.16-0.3,0.19-0.47,0.11-0.53C144.43,65.24,144.36,65.44,144.49,65.46z"/>
					<path class="st23" d="M173.01,66.71c0.13,0.05,0.26,0.08,0.39,0.13c0.55-0.02,1.11-0.04,1.77,0.06
						C174.53,66.64,173.77,66.46,173.01,66.71z"/>
					<path class="st23" d="M227.86,79.29c-0.02,0.06-0.04,0.13-0.07,0.19C227.85,79.5,227.86,79.42,227.86,79.29z"/>
					<path class="st23" d="M219.63,102.48c0.02-0.24,0.11-0.62,0.18-0.98C219.74,101.67,219.67,101.96,219.63,102.48z"/>
					<path class="st23" d="M193.04,69.62C193.59,69.75,193.14,69.6,193.04,69.62L193.04,69.62z"/>
					<path class="st23" d="M195.17,72.04c-0.13,0.01-0.23,0.04-0.27,0.13C194.97,72.09,195.06,72.05,195.17,72.04z"/>
					<path class="st23" d="M167.44,69.36c-0.02,0-0.03,0-0.05,0C167.56,69.43,167.53,69.42,167.44,69.36z"/>
					<path class="st23" d="M193.81,70.04c-0.19-0.11-0.42-0.22-0.67-0.32C193.25,69.79,193.45,69.88,193.81,70.04z"/>
					<path class="st23" d="M193.76,69.81c0.18,0.07,0.33,0.12,0.47,0.18C194.31,69.94,194.26,69.87,193.76,69.81z"/>
					<path class="st23" d="M192.27,69.45c0.32,0.07,0.61,0.16,0.88,0.27c-0.1-0.06-0.14-0.09-0.11-0.1
						C192.88,69.59,192.65,69.53,192.27,69.45z"/>
					<path class="st23" d="M200.16,46.37c0.03,0.03,0.07,0.05,0.1,0.08C200.84,46.49,200.6,46.43,200.16,46.37z"/>
					<path class="st23" d="M136.71,92.59c0-0.02,0-0.04,0-0.06c-0.01,0.02-0.03,0.04-0.04,0.06L136.71,92.59z"/>
					<path class="st23" d="M136.42,94.39c-0.29-0.89-0.06-1.29,0.25-1.79c-0.46,0.03-0.92,0.07-1.39,0.12
						C135.65,93.3,136.02,93.85,136.42,94.39z"/>
					<path class="st23" d="M150.21,54.34c-0.47,0.15-0.93,0.31-1.4,0.48c1.06-1.52,2.26-2.02,0.82-1.73
						c0.29,0.62-0.86,1.42-1.97,2.28c-1.12,0.85-2.19,1.79-1.83,2.37c-0.31,0.12-0.61,0.26-0.91,0.4c0.22-0.17,0.2-0.26,0.41-0.42
						c-1.84,0.74-0.42,1.62-2.24,3.14c-0.66,0.52-1.17,0.82-0.92,0.29c-0.34,0.53-0.67,1.05-0.98,1.59
						c-0.37,0.38-0.46,0.13-0.09-0.25c-0.59,0.72-1.15,1.47-1.7,2.22l-0.02-0.04c-0.09,0.44-0.35,1.36-0.49,1.79
						c-0.57,0.46,0.09-0.37-0.15-0.32c-0.21,0.48-0.42,0.95-0.61,1.44c-0.64,0.32-0.22-0.93,0.46-1.76c-1.94,0.4-0.51,1.2-2.83,3.4
						l0.64-1.33c-1.17,0.38-1.55,1.51-2.79,2.74c0.41-0.25,2.74-2.26,2.16-0.64c-0.33,0.35-0.69,0.87-0.88,1.78
						c-0.43-0.23-0.75,0.6-1.22,1.58l-0.53-0.36c-0.37,1.13-0.03,1.18-0.08,1.92c-0.63,1.11-1.2,1.13-1.71,1.22
						c-1.01,1.82,1.35-0.93,0.37,1.32c-0.97,1.45-1.29,2.68-1.72,4.81c-0.66,1.1-0.29-0.35-0.62,0.01l0.09,1.24
						c-0.1,0.26-0.22,0.13-0.28,0.06c-0.09,0.98,0.56,0.27,0.32,1.74c0.29,0.28-0.16,0.94-0.57,1.83c-0.42,0.88-0.79,2.03-0.42,2.98
						c-0.21,0.45-0.38-0.24-0.63-0.11c0.41,2.4,0.28,2,0.83,3.98l-0.58,1.58c0.6-1.14,1.02,0.43,1.32,1.84
						c0.29-0.4,0.52-0.74,0.65-0.98l0.08,2.21c-0.14,0.25-0.33,0-0.55-0.39c0.04,0.15,0.07,0.3,0.1,0.42
						c-0.34,0.74-0.65,0.29-0.93-0.31c0.16-0.24,0.33-0.49,0.49-0.72c-0.32-0.58-0.69-1.12-1.08-1.05c0.06,0.15,0.09,0.42,0.09,0.72
						c-0.09-0.15-0.17-0.25-0.24-0.19c-0.08,0.06,0.04,0.3,0.16,0.67l-0.77,0.39l0.26,0.15c-0.27,0.9-0.55,1.8-0.85,2.69
						c0.17,0.79,0.33,1.57,0.51,2.39c0.08,0.41,0.15,0.84,0.21,1.3c0.05,0.46,0.12,0.94,0.05,1.3l-0.08,0.41l0.15,0.09
						c0.56,0.33,1.15,0.74,1.89,1.03c-0.49,0.05-0.65,0.17-0.72,0.4c-0.07,0.22-0.02,0.52-0.2,0.78c-0.39-0.6-1-0.99-1.69-1.46
						l0.03-1.61c-0.44-0.24-0.28-0.15-0.32-0.21l-0.01-0.15c0-0.13-0.01-0.27,0.01-0.47c0.02-0.39,0.07-0.78,0.18-1.17
						c-0.23,0.83-0.49,0.58-0.55,0.35l0.01,0.92l0.02,0.31c0,0.04,0.01,0.07,0.02,0.09l0.01,0.01l0.22,0.1
						c0.16,0.07,0.3,0.14,0.42,0.22l-0.28,1.86c0.35,0.23,0.72,0.47,1.13,0.69c-0.18,0.17-0.1,0.37,0.17,0.63
						c0.28,0.25,0.72,0.57,1.47,0.89c-0.21-0.33-0.04-0.43,0.35-0.47c0.38-0.04,1.14-0.02,1.9-0.5c0.76-0.49,1.11-1.21,1.29-1.73
						c0.18-0.54,0.24-0.99,0.24-1.34c0.17-0.01,0.33,0.08,0.38,0.39c0.01,0.32,0.08,0.82-0.61,1.93c0.56-0.54,0.71-1,0.76-1.39
						c0.05-0.39-0.04-0.73-0.13-1.04c-0.19-0.63-0.44-1.2-0.02-1.97c-0.04,0.37-0.11,0.56,0.04,0.73c-0.18-0.92,0.28-2.92,0.52-2.41
						l-0.03,0.36c0.19-1.19,0.41-2.95,0.57-4.45c0.16-1.51,0.26-2.78-0.09-3.06c0.11,0.01,0.9,0.57,1.04,0.74
						c-0.58-1.54-1.03-3.17-1.31-4.91c0.54,0.62,2.65,0.08,2.31,1.95c0.3-0.45,0.64-1,0.92-2.09c-0.25,0.26-1.36,0.34-1.19-0.14
						c0.68-0.45,0.89-0.59,1.11-0.79c0.21-0.19,0.44-0.44,1.18-0.94c-0.43,0.37-1.07-0.76-0.51-1.48c0.06,0.21,0.96,0.61,0.87,0.93
						c0.11-0.78,0.25-1.59,0.46-2.39c-0.21,0.55,0.67,0.68,1.21,0.54c-0.32,0.01,1.27-1.34,1.63-1.81l-0.84,0.46
						c1.89-1.58,0.73-2.87,2.73-4.5c-0.09,0.38,0.34,1.59,1.42,0.86c0.1-0.82,0.21-3.84,1.88-5.59l0.56,0
						c0.42-0.44,0.83-0.89,1.27-1.32c-0.23,0.67-0.73,1.82-1.22,3c-0.5,1.18-0.99,2.39-1.39,3.19c0.9-0.4,0.45,0.12,1.53-0.77
						c0.58-0.06-0.3,0.83-0.61,1.11c0.88-0.64,1.76-1.24,2.66-1.8c-0.52-0.48,1.63-1.94,1.24-2.33c-0.86,0.83-1.69,1.69-2.48,2.58
						c-0.54-0.44,0.49-2.8,2.6-3.95c0.64-0.09,0.25,1.26,0.41,1.42c0.12-0.36,1.64-1.51,1.92-1.44c-0.23,0.26-0.45,0.52-0.67,0.79
						c1.21-0.4,1.4-1.8,3.08-1.87c0.5-0.19,1.77,0.17,1.7-0.22c-1.07-0.4-2.21-2.48-1.85-3.26c0.21-0.05,3.06-0.42,3.78-0.19
						c1.03,0.31-0.85,1.76,0.04,2.03c-0.03-0.18,0.37-0.54,0.54-0.67c0.58-0.01-0.06,0.6,1.08,0.19c0.02-0.71,2.41-0.56,0.41-0.7
						c1.11-0.49,1.27-0.18,2.63-0.47c-0.53-0.36,1-1.71,2.27-2c-0.06,0.18,0.24,0.38,0.38,0.48c2.54-0.09,3.88,0.3,6.21,0.48
						c0.2,0.18,1.31,0.49,0.8,0.73c0.35-0.08,0.68-0.29,1.4-0.22c1.33,0.74-1.61-0.08-0.63,0.74c0.13-0.39,1.92-0.34,2.98-0.45
						c-0.24-0.65-2.37-0.41-3.41-0.26c0.07-0.84,1.98-1.54,4.49-1.61c1.98,0.04,0.78,0.65,1.13,0.57c3.64,0.62,3.32-1.07,6.32,0.01
						c1.13,0.74-0.12,1.06,0.09,1.49c-1.61-0.06-2.38-0.71-3.47-0.84l1.29,0.44c-0.53,0.1-1.61,0.09-2.16-0.14
						c0.94,0.59,6.18,0.93,8.82,2.1c0.53-0.06,1.42-0.01,1.08-0.33l-0.89-0.15c-0.71-0.63,1.81-0.16,0.74-0.64
						c1.26,0.02,2.75-0.06,4.33,0.76l0.1,0.69c0.03-0.18-0.95-0.72-1.48-0.69c0.79-0.05,2.22,1.65,3.24,1.19l-0.99-0.83
						c1.27,0.14,2.98,0.15,4.28,0.93c-0.4-0.83-0.35-0.08-1.06-1.15c0.26,0.59-0.63,0.2-1.51-0.16c-0.87-0.35-1.67-0.65-1.11,0.06
						c-0.79-1.18-1.74-1.01-2.97-2.13c-0.01,0.21,0.4,0.52-0.85,0.05c-0.07,0.04-0.23,0.07-0.33,0.09
						c-0.04-0.02-0.05-0.02-0.08-0.04c0.02,0.02,0.04,0.03,0.06,0.04c-0.06,0.01-0.07,0.02,0.02,0.01c0.28,0.17,0.49,0.35,0.56,0.49
						c-0.76,0.24-2.76-0.3-3.5-0.21c-0.73-0.27,0.37-0.15,0-0.46l-1.1,0.13c0-0.46-1.88-1.14-0.02-1.04l-1.62-0.34
						c-0.91-0.42-2.22-0.73-3.05-0.66c-0.75-0.21-1.98,0.23-1.28-0.03l-2.53-0.05l-0.01-0.11c-2.45-0.37-5.12,0.08-7.95-0.97
						c-0.88,0.06-1.76,0.12-3.24-0.03l-0.29-0.39c-1.13,0.1-3.52-0.26-3.98,0.23c-0.68-0.45-2.14-0.31-3.61,0.08
						c-0.73,0.19-1.47,0.45-2.15,0.66c-0.67,0.25-1.3,0.44-1.79,0.56l0.09,0.51c-1.31,0.43-2.51,1.03-3.96,1.93l0.28,0.36
						c-1.15,0.93-3.48,1.37-5.4,2.66c0.04-0.23,0.56-0.5,0.96-0.63c-1.44,0.28-2.56,1.27-3.56,2.27c-1,1.01-1.9,2.06-3.05,2.55
						c-0.35,0.5-0.71,0.74-1.11,0.92c0.04-0.04,0.07-0.08,0.1-0.11c-0.05,0.04-0.12,0.1-0.19,0.15c-0.25,0.11-0.52,0.22-0.79,0.36
						c0.26-0.08,0.5-0.17,0.69-0.27c-0.35,0.3-0.85,0.8-1.3,1.35l-0.54-0.16c-0.04,0.04-0.07,0.08-0.11,0.12
						c-0.64,0.33-0.26,0.54,0.25,0.57c-0.21,0.29-0.38,0.58-0.49,0.84c-0.95-0.19-1.15,1.46-2.28,1.47
						c-0.02,0.32-0.58,1.04-1.04,1.83c-0.47,0.78-0.81,1.62-0.56,2.02c-0.11-0.04-0.27,0.1-0.06-0.22
						c-0.53,0.59-1.03,1.24-1.17,1.98l-0.7,0.01c-0.03,0.65-0.04,1.29-0.03,1.92c-0.75,0.8-1.13,1.15-1.15-0.02
						c-0.17,1.33-0.25,1.83-0.35,2.3c-0.08,0.46-0.16,0.89-0.09,2l-0.36-0.2c-0.19,0.75,0.07,2.03-0.34,2.41
						c-0.54,0.75-0.91,2.84-1.18,5.16c-0.14,1.15-0.28,2.41-0.56,3.36c-0.07,0.22-0.15,0.44-0.23,0.55
						c-0.04,0.08-0.07,0.09-0.09,0.12l-0.01-0.01c0.02,0.02,0.1,0.08,0.15,0.13c0.1,0.1,0.14,0.11,0.2,0.2
						c0.18,0.23,0.05,0.12,0.07-0.08c0-0.11,0.02-0.32,0.08-0.54c0.02-0.1,0-0.05,0.01-0.07l-0.03-0.05
						c-0.11,0.57-0.18,0.45-0.44,0.07c-0.24-0.36-0.56-0.93-0.93-0.66c0-0.02,0-0.03,0-0.05l0.29,2.07c0.27-0.22,0.48-0.5,0.61-0.58
						c0.07-0.04,0.12-0.05,0.14,0.03c0.02,0.08,0.04,0.23-0.07,0.61c0.4-1.15,0.34-1.5,0.48-1.93c0.11-0.42,0.21-0.8,0.31-1.16
						c0.18-0.72,0.28-1.36,0.03-2.17c0.31-0.2,0.32,0.53,0.52,0.33c-0.03-0.18-0.12-0.72,0.07-0.92c0.2-0.19,0.18,0.35,0.24,0.71
						c0.31-2.23-0.52-2.57-1.29-2.83c0.53-1.06,0.54-1.63,0.11-2.48c0.3-0.36,0.65-0.98,0.59,0.4c0.15-0.76,0.84-4.68,0.18-4.81
						c0.18-0.23,0.11-1.08,0.05-1.29c0.12-1.68,0.18-1.76,0.37-3.33l-0.18,0.41c-0.65-0.75,0.05-1.35,0.32-2.6L132,85.5
						c0.7-1.34,0.78-1.64,0.83-1.96c0.07-0.31,0.12-0.64,1.01-1.87l-0.51-0.05c-0.83-0.69,1.66-2.17,2.11-3.91l-0.53,0.45
						c0.11-1.02,2.47-1.8,3.02-2.58c0.17-0.14-0.02,0.35-0.1,0.65c1.68-1.92-0.42-0.58,0.32-2.28c0.46-0.13,0.55,0.79,1.19-0.25
						c0.51-0.38,0.85-3.64,2.39-4.62c-0.43,0.15-0.86,0.3-0.52-0.51c0.69-1.15,2.9-2.19,3.06-3.58c0.16-0.08,0.25-0.08,0.31-0.04
						c0.5-0.9,1.94-2.56,2.12-3.28c0.89,0.3,1.9-0.85,2.92-1.9c1.01-1.05,1.99-1.99,2.4-1.36c0.83-0.6,1.68-1.18,2.55-1.74
						l0.01,0.18c1.74-0.93,2.18-1.57,2.62-2.24c0.45-0.13,0.23,0.16,0.23,0.25c2.72-1.09,2.92-1.22,4.86-2.99l0.45,0.34
						c0.49-0.55,4.19-1.12,6.59-2.75c0,0.06-0.02,0.18-0.2,0.33c1.37-0.89,3.28-1.28,4.88-1.59c1.61-0.33,2.9-0.61,3.25-1.63
						c0.64-0.28,1.28-0.6,1.95-0.84c-2.69,0.36,0.26-0.86-0.9-0.95c1.08-0.31,2.86,0.12,1.56,0.39l-0.22-0.06
						c-0.17,0.5,0.67,0.45,1.56,0.41c0.88-0.05,1.81-0.05,1.78,0.26c1.3-0.03,2.56,0.03,3.85,0.26c1.29,0.26,2.58,0.45,3.83,0.79
						c1.24,0.38,2.48,0.68,3.67,1.09c1.19,0.45,2.38,0.82,3.54,1.27l-0.29-0.89l1.62,0.68c0.37,0.33,0.36,0.76-0.78,0.27
						c0.45,0.63,2.06,0.45,2.16,0.32c1.07,0.6,0.75,0.74,0.28,0.69c-0.49-0.01-1.15-0.11-0.81,0.03c0.32,0.11,0.64,0.2,0.95,0.34
						l-0.17-0.18c0.86,0.08,1.06-0.18,2.4,0.5c0.79,0.54,0.24,0.61,0.56,0.8c-0.03,0.05,0.08,0.11,0.49,0.29l1.88,1.12l-0.48-0.93
						c0.99,0.23,1.8,1.04,1.24-0.03c0.21,0.39,0.73,0.89,1.41,1.43c0.67,0.54,1.54,1.07,2.33,1.67c1.64,1.12,3.18,2.27,3.44,2.68
						c0.68,0.25,1.25,0.63,1.83,1.07c0.58,0.44,1.15,0.95,1.73,1.56c-0.22-0.38,0.04-1.03,1.05,0.04c-1.31,0.58,1.51,2.29,1.49,3.82
						c-0.11-0.59,0.63,0.13,1.23,0.81c0.65,0.67,1.14,1.28,1.1,0.4c0.53,1-0.37,0.35-0.19,1.19l0.21,0.23
						c0.03,0.04,0.07,0.07,0.1,0.13l0.09,0.24c0.12,0.33,0.22,0.67,0.31,1.02l0.14,0.53l0.07,0.57c0.04,0.38,0.07,0.78,0.11,1.17
						c0.06,0.79,0.01,1.64,0.04,2.47c-0.01,0.85-0.03,1.71,0.03,2.58c0.17,0.06,0.44-0.53,0.7,0.23l-0.94,1.84
						c0.07,0.69,0.99,0.7,0.29,1.94c0.16-0.17,0.4-0.43,0.42,0.05c-1.37,6.87-1.29,14.41-4.41,21.16c0.54-0.89,0.44-0.24,0.29,0.49
						c0.18-0.46,0.42,0.1,0.68,0.06l-0.65,1.42c-0.1,0.22-0.22,0.5-0.32,0.68l-0.26,0.43c0.1,0.1,0.15,0.24,0.17,0.4
						c0.01,0.08,0.01,0.16,0.01,0.25c-0.04,0.05-0.1,0.09-0.15,0.15c-0.08,0.08-0.7,0.77-0.94,1.26c-0.28,0.51-0.38,0.97-0.24,1.17
						c0.11-0.39,0.26-0.76,0.44-1.12c-0.06,0.73,0.38,0.61,0.92,0.43c0.56-0.2,1.15-0.37,1.88-0.31c0.25-0.03,0.44,0.01,0.57,0.14
						c0.06-0.23,0.03-0.5,0.06-0.75c0.03-0.25,0.09-0.51,0.17-0.77c0.08-0.25,0.2-0.55,0.31-0.8c0.11-0.23,0.23-0.47,0.36-0.71
						c0.49-0.97,0.95-2.08,0.61-3.36c0.3-0.47,0.21,0.5,0.48,0.27c-0.28-0.67-0.21-1.39,0.24-2.67l0.07,0.17
						c0.66-3.71,1.37-5.22,2.31-9.39l-0.52,0.24c0.2-0.89,0.38-1.06,0.56-1.47c-0.55-1.14-0.44,2.54-1.07,1.47
						c1.2-1.04,0.88-6.38,2.03-7.1c0.11-1.43-0.58,0.37-0.46-1.05l0.32-0.35l-0.35-0.39c0.14-0.92,0.53-1.38,0.78-1.4
						c-0.03,0.23,0.04,0.65,0.04,0.9c0.42-1.21,0.04-3.47,0.12-3.89c-0.04,0.47-0.13,0.93-0.2,1.39c-0.07-1.97-0.12-4.19-0.39-6.42
						c-0.2-1.12-0.34-2.23-0.74-3.32c-0.09-0.27-0.18-0.53-0.27-0.8c-0.05-0.14-0.07-0.24-0.16-0.41l-0.27-0.49
						c-0.09-0.16-0.19-0.33-0.28-0.46l-0.26-0.32c-0.18-0.21-0.35-0.41-0.53-0.61l-0.01,0.39c-1.06-1.12-1.37-1.58-1.72-2.11
						c-0.34-0.52-0.67-1.12-1.85-2.19l0.12,0.05c-0.59-0.32-1.28-0.82-1.89-1.43c0.76,0.36-0.74-1.41,0.22-0.9
						c-2.63-1.77-1.4-0.78-3.48-1.49l-0.13-0.58c-0.76-0.17-0.91-0.07-2.19-0.95c1.2,0.54-0.45-1.07,0.94-0.51
						c-1.07-1.33-2.23-1.86-3.13-2.31c-0.94-0.41-1.65-0.73-1.98-1.64c-1.82,0.06,2.11,2.01,1.28,1.74
						c0.41,0.66-1.47-0.02-2.27-0.65c-0.86-0.57-0.87-2.03-3.24-3.29c0.24,0.12,0.29,0.05,0.52,0.19c-0.78-0.69-1.92-0.54-2.85-1.46
						c-0.87,0.25-1.45-0.67-1.94-0.02c0.79,0.23,1.54,0.52,2.3,0.82c-1.33-0.45-2.88-0.03-4.8-1.28c0.22-0.08,0.92-0.03,1.39,0.03
						c-0.54-0.46-1.23-0.35-1.81-0.79c0.46-0.7,2.83,0.91,4.44,0.93c-0.53-0.61-2.85-0.53-1.82-1.05c-0.71,0.3-1.3,0.03-1.98-0.31
						c-0.69-0.31-1.48-0.65-2.46-0.53l0.26-0.42c-0.3-0.02-0.93,0.02-1.43-0.15l1.09-0.3c-1.54,0.01-2.66-1.19-4.13-1.26
						c2.93,0.67,0.53,0.71,1.67,1.34c-3.68-0.2-1.75-1.78-5.93-2.18c0.57,0.02,2.05,0.6,1.14,0.68c-0.76-0.21-1.76-0.55-2.22-0.87
						c-2.86-0.15,0.4,0.51-0.84,0.7c-0.45-0.32-0.81-0.29-1.2-0.17c-0.39,0.15-0.81,0.39-1.41,0.48L183.51,42
						c-3.22-0.18-0.8,0.98-3.64,0.88l1.12-0.79c-0.49,0.11-0.98,0.21-1.47,0.34l0.23-0.59c-1.57,0.64-2.06,0.63-3.65,0.83
						c0.43,0.24,0,0.9-1.31,1.26c-0.97-0.01,0.38-0.59-1.47,0.04c0.33-0.41,0.69-0.93,1.63-0.73c0.04-0.17,0.35-0.4,0.4-0.58
						c-1.09-0.07-2.51,0.64-3.17,0.87c0.27-0.07,0.58-0.15,0.76-0.14c-0.83,0.51-1.65,1.02-2.44,1.56c-0.47-0.02-0.2-0.27,0.07-0.53
						c-0.51,0.25-0.81,0.59-1.56,0.94c0.06-0.44-0.16-0.81,0.9-1.4c-0.8,0.45-1.56,0.93-2.32,1.39c-0.23-0.09-1.43,0.1-1.17-0.17
						c-1.45,0.37-2.97,2.15-4.82,2.68c-0.06,0.11-0.21,0.26-0.55,0.48c-1.63,0.68-3.34,0.92-5.03,2.43
						c-0.48-0.02-0.95-0.02-1.43-0.03c-1.43,0.97,1.89-0.04-0.46,1.57c-1.62,1.22-0.95-0.13-1.66,0.06
						c-0.69,0.83-1.77,2.34-3.61,2.96C149.3,54.89,149.75,54.7,150.21,54.34z M135.81,69.94c0.12-0.41,0.29-1.27,0.7-1.37
						C136.72,69.27,136.3,69.42,135.81,69.94z M128.13,100.24c-0.11-0.31,0.03-0.74,0.28-1.22
						C128.41,99.39,128.33,99.8,128.13,100.24z M186.92,68.73c-0.02,0-0.03,0.01-0.05,0.02C186.01,68.41,186.31,68.54,186.92,68.73z
						 M188.74,69.26c0.2-0.03,0.2-0.1,0.13-0.18c-0.15,0.1-0.57,0.02-1.04-0.09C187.94,69.14,188.17,69.26,188.74,69.26z
						 M204.06,51.67l-0.25-0.26C204.57,51.63,204.31,51.66,204.06,51.67z"/>
					<path class="st23" d="M127.94,96.71c0.09-0.1,0.19-0.12,0.28-0.14C128.16,96.42,128.06,96.4,127.94,96.71z"/>
					<path class="st23" d="M161.56,47.9l0.06-0.02c0.02-0.04,0.02-0.08,0.02-0.11L161.56,47.9z"/>
					<path class="st23" d="M160.87,72.57c-0.36,0.04-0.58,0.01-0.74-0.03C160.15,72.65,160.34,72.7,160.87,72.57z"/>
					<path class="st23" d="M198.72,71.25c-0.4-0.11-0.8-0.22-1.2-0.32c0.57,0.18,0.73,0.36,0.99,0.54
						C198.52,71.35,198.35,71.12,198.72,71.25z"/>
					<path class="st23" d="M206.83,78.35c0.18,0.04,0.31,0.19,0.49,0.23l0.08-0.21C206.76,77.98,206.23,77.88,206.83,78.35z"/>
					<path class="st23" d="M199.17,73.15c-0.07,0.41,0.68,0.57,1.46,0.83c-0.05-0.02-0.09-0.03-0.13-0.06
						C200.94,73.5,200.08,73.32,199.17,73.15z"/>
					<path class="st23" d="M200.82,74.04c0.24,0.08,0.48,0.18,0.7,0.29C201.7,74.17,201.26,74.17,200.82,74.04z"/>
					<path class="st23" d="M191.15,69.5c0.37,0.19,0.37-0.45,0.55-0.24C192.26,68.86,188.92,69.27,191.15,69.5z"/>
					<polygon class="st23" points="199.28,74.65 199.2,74.07 198.62,74.27 					"/>
					<path class="st23" d="M193.27,72.13l1.22,0.51c0.01-0.09,0.18-0.08,0.39-0.05C194.11,72.32,193.28,71.97,193.27,72.13z"/>
					<path class="st23" d="M194.89,72.58c0.4,0.14,0.79,0.25,1.04,0.25C195.7,72.77,195.23,72.63,194.89,72.58z"/>
					<path class="st23" d="M197.56,74.11l-0.32-0.24c-0.28-0.12-0.57-0.24-0.86-0.35C196.78,73.71,197.17,73.91,197.56,74.11z"/>
					<path class="st23" d="M179.36,69.57l-1.44-0.03c-0.17,0.15,0.21,0.3,0.75,0.3C179.02,69.76,179.56,69.76,179.36,69.57z"/>
					<path class="st23" d="M183.47,71.48c-0.37-0.15-0.38-0.27-0.57-0.46l-0.13,0.61L183.47,71.48z"/>
					<path class="st23" d="M179.32,71.09c-0.16,0.15-2.12,0.23-0.32,0.42C179.17,71.36,180.61,71.4,179.32,71.09z"/>
					<polygon class="st23" points="158.29,71.65 158.63,71.52 158.23,70.58 					"/>
					<path class="st23" d="M144.13,83.71c1.39-0.89-0.12-0.73,1.21-1.47c0.14-0.44-1.1,0.61-0.93,0.19
						C143.83,83.27,143.35,83.51,144.13,83.71z"/>
					<path class="st23" d="M144.42,82.43c0.1-0.14,0.19-0.28,0.29-0.45C144.53,82.21,144.46,82.34,144.42,82.43z"/>
					<path class="st23" d="M218.09,104.92c-0.38,0.38-0.73,0.79-1.03,1.24c0.26-0.26,0.53-0.5,0.81-0.72
						C217.93,105.28,218.01,105.1,218.09,104.92z"/>
					<path class="st23" d="M217.45,107.86c-0.24,0.06-0.48,0.13-0.72,0.23c0.12,0.38,0.29,0.75,0.47,1.09
						C217.17,108.79,217.23,108.07,217.45,107.86z"/>
					<path class="st23" d="M133.11,72.07l0.1,0.15c0.23-0.08,0.37-0.31,0.65-0.77L133.11,72.07z"/>
					<polygon class="st23" points="142.75,59.65 142.55,59.83 143.33,59.89 					"/>
					<path class="st23" d="M152.93,51.16c-0.47,0.25-0.95,0.68-1.42,0.94C152.45,51.4,153.42,51.73,152.93,51.16z"/>
				</g>
			</g>
		</g>
	</g>
</g>
<path class="st24" d="M167.44,108.92c0.2-0.28,3.51-4.76,9-4.24c5.54,0.53,8.05,5.65,8.19,5.95"/>
<path class="st24" d="M197.37,112.02c0.25-0.15,4.33-2.59,9.04-0.64c4.76,1.98,5.66,6.56,5.71,6.82"/>
</svg>
