<?xml version="1.0" encoding="utf-8"?>
<!-- Generator: Adobe Illustrator 23.0.5, SVG Export Plug-In . SVG Version: 6.00 Build 0)  -->
<svg version="1.1" id="Capa_1" xmlns="http://www.w3.org/2000/svg" xmlns:xlink="http://www.w3.org/1999/xlink" x="0px" y="0px"
	 viewBox="0 0 400 299.96" style="enable-background:new 0 0 400 299.96;" xml:space="preserve">
<style type="text/css">
	.st0{fill:#C9482D;}
	.st1{fill:#D1B134;}
	.st2{fill:#12224A;}
	.st3{fill:#FDDB56;}
	.st4{fill:#C9624C;}
	.st5{fill:#DB8866;}
	.st6{fill:#240B13;}
	.st7{fill:#222221;}
	.st8{fill:#5A73F7;}
	.st9{fill:#8093F7;}
	.st10{fill:#FFFFFF;}
	.st11{fill:#1D3CDE;}
	.st12{fill:#2944D6;}
	.st13{fill:#D69532;}
	.st14{fill:#BD642C;}
	.st15{fill:#8F4211;}
	.st16{fill:#4F2409;}
	.st17{fill:#1C3573;}
	.st18{fill:none;stroke:#222221;stroke-miterlimit:10;}
</style>
<g>
	<g>
		<g>
			<g>
				<path class="st0" d="M272.07,139.47c-12.05,9.15-18.26,47.03-20.29,62.05l-11.75-6.33l-7.37,7.25c0,0,9.25,24.21,23.22,23.31
					c5.15-0.33,13.06-14.99,13.06-14.99s14.03-26.04,15.48-35.7C285.81,165.72,279.8,133.6,272.07,139.47z"/>
				<path class="st1" d="M272.07,139.47c-7.06,5.36-12.11,20.58-15.5,35.29c6.37,2.46,15.07,7.24,22.13,16.26
					c2.76-6.13,5.17-12.25,5.72-15.96C285.81,165.72,279.8,133.6,272.07,139.47z"/>
			</g>
			<path class="st2" d="M235.39,250.3c16.08,6.13,32.53,10.9,49.75,12.75c30.33,3.27,94.27-25.85,89.21-40.64
				c-0.98-2.86-2.4-5.68-4.78-7.54c-4.2-3.28-10.27-2.82-15.56-1.54c-9.67,2.33-18.62,6.75-27.59,11.2
				c-27.26,4.81-55.21-6.23-83.07-8.77c-23.72-2.17-26.85,12.15-27.38,14.52C212.96,243.62,222.69,245.46,235.39,250.3z"/>
			<g>
				<g>
					<g>
						<path class="st3" d="M265.27,152.39c3.28-19.78,21.45-20.7,26.88-21.48c5.43-0.78,16.34-1.45,23.39,0.99
							c4.96,1.72,6.97,6.84,7.57,10.06c0,0,2.07,36.87,2.07,60.4c0,6.32,6.22,21.82,8.61,27.55c0.48,1.16-0.13,2.48-1.31,2.8
							c-10.86,2.99-57.97,14.9-66.23-0.63l3.35-30.95c-1.04-8.82-4.01-17.67-4.35-26.55L265.27,152.39z"/>
					</g>
					<path class="st1" d="M269.6,201.13c-0.21-1.79-0.51-3.58-0.85-5.38c0.22,0.07,0.43,0.13,0.65,0.2
						c20.76,6.29,41.1-11.21,39.24-33.43l-1.81-21.68c0,0,6.5-3.11,12.97-6.01c1.94,2.23,2.92,5.06,3.3,7.12c0,0,1.58,28.19,1.98,51
						l0,0c0,0,0,0.01,0,0.01c0.03,1.64,0.05,3.24,0.07,4.81c0,0,0,0,0,0.01c0.02,1.57,0.02,3.1,0.02,4.58c0,0.45,0.04,0.96,0.1,1.49
						c0.02,0.17,0.05,0.35,0.07,0.53c0.05,0.39,0.11,0.79,0.19,1.21c0.04,0.21,0.08,0.43,0.13,0.66c0.09,0.43,0.19,0.88,0.3,1.34
						c0.05,0.21,0.1,0.42,0.15,0.64c0.15,0.61,0.32,1.23,0.5,1.87c0.02,0.08,0.04,0.15,0.06,0.22c0.21,0.74,0.44,1.5,0.68,2.26
						c0.05,0.17,0.11,0.34,0.16,0.5c0.19,0.61,0.39,1.22,0.59,1.83c0.07,0.21,0.14,0.42,0.21,0.62c0.21,0.61,0.41,1.21,0.63,1.81
						c0.06,0.17,0.12,0.34,0.18,0.51c0.27,0.75,0.54,1.5,0.81,2.23c1.47,3.99,2.95,7.61,3.86,9.81c0.48,1.16-0.13,2.48-1.31,2.8
						c-10.86,2.99-57.97,14.9-66.23-0.63L269.6,201.13z"/>
					<g>
						<path class="st4" d="M301.57,129.55l-5.82-20.51l-17.67,7.09l1.67,17.44c-1.58,0.76-8.67,17.02-0.82,18.5
							c12.18,2.29,11.18-12.21,29.8-21.58C306.42,130.05,303.81,129.87,301.57,129.55z"/>
					</g>
				</g>
				<g>
					<g>
						<path class="st0" d="M263.33,93.88c3.46,7.06,2.01,14.93-3.25,17.62c-5.3,2.7-12.47-0.85-16.01-7.97
							c-3.55-7.15-2.06-15.11,3.31-17.76C252.72,83.14,259.86,86.79,263.33,93.88z"/>
						<g>
							<path class="st5" d="M282.5,135.71c-24.59,8.58-34.52-14.26-34.52-33.45c0-7.62,0-30.49,0-30.49
								c0-14.26,11.49-26.25,25.66-26.78l17.73-0.66c14.17-0.53,25.66,10.6,25.66,24.86L313.9,98.8
								C313.9,117.99,293.82,131.76,282.5,135.71z"/>
						</g>
						<g>
							<path class="st5" d="M305.93,90.17c-3.98,7.81-2.31,16.54,3.73,19.49c6.04,2.95,14.16-0.99,18.15-8.8
								c3.98-7.81,2.31-16.54-3.73-19.49C318.03,78.42,309.91,82.36,305.93,90.17z"/>
							<path class="st0" d="M309.42,104.68c0.02-0.31,0.08-0.59,0.11-0.89c-0.05,0.22-0.07,0.4-0.09,0.55
								c0.04-1.56,0.26-2.85,0.66-3.86c3.15-13.09,15.2-14.85,15.2-14.85c-6.11,3.94-9.92,8.17-12.28,11.65
								c4.33-1.94,11.03,1.57,11.03,1.57c-7.95-1.82-11.56,0.07-13.22,2.17C309.74,103.25,309.42,104.68,309.42,104.68z"/>
						</g>
						<g>
							<g>
								<g>
									<path class="st6" d="M250.53,91.73c0,2.7,0.88,4.86,1.97,4.82c1.09-0.04,1.97-2.26,1.97-4.96c0-2.7-0.88-4.86-1.97-4.82
										C251.42,86.81,250.53,89.03,250.53,91.73z"/>
								</g>
								<path class="st7" d="M247.97,76.59c0.63-0.46,1.31-0.9,2.09-1.29c7.72-3.88,9.31,3.55,9.31,3.55
									c-3.18,0.57-7.83,2.87-11.41,4.84C247.97,81.05,247.97,78.59,247.97,76.59z"/>
							</g>
							<g>
								<g>
									<path class="st6" d="M279.8,90.64c0,2.7-0.88,4.92-1.97,4.96c-1.09,0.04-1.97-2.12-1.97-4.82c0-2.7,0.88-4.92,1.97-4.96
										C278.92,85.78,279.8,87.94,279.8,90.64z"/>
								</g>
								<path class="st7" d="M288.11,84.98c0,0-10.84-5.91-16.66-6.47c0,0,1.06-7.74,8.81-4.51
									C288.01,77.22,288.11,84.98,288.11,84.98z"/>
							</g>
						</g>
					</g>
					<g>
						<g>
							<g>
								<path class="st8" d="M323.55,81.14c0,0-28.13-28.23-76.47-12.94c0,0-4.72-19.26,0.63-29c5.38-9.79,33.24-10.73,45.71-7.88
									c8.08,1.85,23.6,4.51,28.15,12.56C326.42,52.45,323.55,81.14,323.55,81.14z"/>
								<g>
									<path class="st9" d="M279.84,31.17c0.42,1.99,4,3.61,7.99,3.61c3.99,0,6.89-1.61,6.47-3.6c-0.42-1.99-4-3.61-7.99-3.61
										C282.32,27.57,279.42,29.18,279.84,31.17z"/>
								</g>
								<path class="st10" d="M293.42,31.32c3.09,0.71,7.27,1.54,11.51,2.74c3.47,8.22,4.62,19.79,0.99,36.11
									c-12.83-5.81-32.76-10.22-58.84-1.97c0,0-4.72-19.26,0.63-29C253.08,29.4,280.95,28.46,293.42,31.32z"/>
							</g>
							<path class="st11" d="M305.27,69.87c0,0-50.75-28.54-75.58-15.47c-3.47,1.83-4.83,8.45-1.7,12.32
								c5.86,7.26,19.82,10.32,19.82,10.32S250.99,61.96,305.27,69.87z"/>
						</g>
					</g>
				</g>
			</g>
			<g>
				<path class="st2" d="M234.11,183.63c-0.5-7.25,6.07-6.87,11.09-4.18c4.15,2.22,13.95,2.22,17.06,0
					c3.77-2.69,10.15-3.07,13.03,4.18c2.88,7.25,11.73,22.83,8.01,25.25c0,0-0.65,1.47-5.31-0.58c-4.66-2.05-9.85-5.41-18.68-4.89
					c-9.07-0.52-12.69,2.84-16.4,4.89c-3.71,2.05-5.05,0.58-5.05,0.58C233,206.46,234.61,190.89,234.11,183.63z"/>
				<g>
					<path class="st5" d="M248.47,199.54l-0.61-2.17c-0.29-1.03-1.03-1.88-1.93-2.2l-9.82-2.27c-1.1-0.25-1.89-1.26-1.89-2.43l0-1.8
						c-0.44-2.35-5.12-1.4-5.12-1.4c-1.72,0.32-3.03,1.67-3.47,3.58l-0.07,0.11c-2.85,4.59-3.32,10.6-1.05,16.08
						c0.03,0.08,0.06,0.15,0.1,0.23c3.34,7.87,7.94,8.61,7.94,8.61c0.33,0.06,0.66,0.09,0.98,0.03l3.85-0.72
						c1.05-0.2,1.82-1.05,2.02-2.24l1.19-6.96l7.02-3.53C248.45,201.9,248.8,200.73,248.47,199.54z"/>
				</g>
				<g>
					<path class="st5" d="M259.49,202.13l0.82-2.39c0.39-1.13,1.38-2,2.56-2.24l16.26-2.51c0.61-0.09,0.96-0.77,0.7-1.35l-1.17-2.55
						c0.56-0.96,1.25-1.58,2.65-1.2l3.66,1.01c2.24,0.62,3.93,2.35,4.48,4.58l3.18,4.92c7.83-3.25,24.22-9.96,33.48-13.19
						c-5.05-8.61-15.71-28.28-19.27-46.38c-1.77-8.99,6.3-13.31,17.21-4.06c6.63,5.62,17.5,18.36,24.69,39.43
						c3.69,10.8,6.8,17.95,3.84,24.58c-5.07,8.97-53.72,15.61-62.17,16.7c-0.93,0.12-1.84,0.37-2.69,0.78
						c-3.7,1.76-7.67,4.79-7.67,4.79l0,0c-0.43,0.03-0.86,0-1.27-0.11l-5.01-1.38c-1.36-0.38-2.36-1.47-2.61-2.85l-1.45-8.12
						l-9.13-5.04C259.47,204.82,259.04,203.44,259.49,202.13z"/>
					<path class="st3" d="M318.69,173.45c-4.66-9.44-9.63-21.33-11.85-32.6c-1.77-8.99,6.3-13.31,17.21-4.06
						c5.58,4.73,14.16,14.53,21.02,30.07C337.62,166.49,328.22,167.7,318.69,173.45z"/>
				</g>
			</g>
			<g>
				<g>
					<g>
						<path class="st2" d="M332.2,269.85c-3.57-8.07-18.66-14.16-32.24-24.55c-36.92-28.24-88.34-45.84-93.33-13.87
							c-2.78,17.8,44.35,31.94,81.05,37.7C314.1,273.28,336.05,278.57,332.2,269.85z"/>
						<path class="st5" d="M302.79,247.39c-4.59,7.55-9.87,16.25-13.33,22.03c25.61,4.09,46.51,8.96,42.74,0.44
							C328.87,262.34,315.56,256.54,302.79,247.39z"/>
					</g>
					<path class="st12" d="M323.73,254.09c-3.57,0.34-6.32,2.1-7.08,2.07c-0.92-0.03-1.8-0.34-2.72-0.41
						c-0.88-0.07-1.78,0.08-2.52,0.42c-0.42,0.19-0.8,0.46-0.96,0.81c-0.15,0.33,0,0.75,0.28,1.18l-1.61-0.04
						c-3.49-0.1-6.64,1.43-7.86,3.8c-1.16,2.26-0.34,4.82,2.09,6.5l2,1.39c0,0.03,0,0.05,0,0.08c-1.11,0.16-2.1,0.48-2.4,0.98
						c-0.2,0.33-0.15,0.72-0.01,1.08c0.25,0.62,0.78,1.18,1.5,1.56c0.74,0.39,1.64,0.6,2.35,1.02c2.13,3.74,4.94,9.89,10.75,11.59
						c10.61,3.11,13.83-3.98,18.27-12.6c4.44-8.61,8.41-15.49-2.2-18.59C330.39,253.96,327,253.72,323.73,254.09z"/>
				</g>
				<g>
					<g>
						<path class="st8" d="M302.01,261.71c0,0-1.54-10.86-11.51-10.21c-9.61,0.63-17.56,3.13-17.56,3.13s-7.33-0.04-14.03,2.75
							c-6.7,2.78-13.68,11.05-11.16,18.9c2.51,7.85,12.83,11.69,23.65,4.89c0,0,12.57-5.52,15.54-6.2
							C289.91,274.28,303.58,272.83,302.01,261.71z"/>
						<path class="st10" d="M270.57,281.66c-10.51,6.1-20.38,2.27-22.82-5.38c-2.51-7.85,4.46-16.11,11.16-18.9
							c3.24-1.35,6.63-2.03,9.27-2.38c-7.75,0.95-20.54,8.73-18.29,20.64C249.9,275.64,254.2,287.47,270.57,281.66z"/>
					</g>
					<g>
						<path class="st2" d="M287.43,253.6c2.46-0.7,4.88-1.56,7.16-2.74c2.85-1.48,6.03-3.6,9.55-6.78
							c35.57-32.07,86.54-48.17,82.48-13.49c-3.54,30.21-55.01,41.12-86.82,41.54c-3.71,0.05-7.41,0.27-11.11,0.57
							c-5.34,0.44-13.59,0.07-15.03-6.08C271.84,258.78,283.2,254.8,287.43,253.6z"/>
						<g>
							<path class="st5" d="M287.43,253.6c2.22-0.63,4.4-1.41,6.48-2.42c-0.6,5.19,0.51,12.49,7.39,20.91
								c-0.5,0.01-1.01,0.03-1.51,0.03c-3.71,0.05-7.41,0.27-11.11,0.57c-5.34,0.44-13.59,0.07-15.03-6.08
								C271.84,258.78,283.2,254.8,287.43,253.6z"/>
							<path class="st10" d="M287.02,253.72c-1.58,5.41-1.31,12.38,5.97,18.68c-1.43,0.09-2.87,0.18-4.3,0.3
								c-5.34,0.44-13.59,0.07-15.03-6.08C271.89,259.01,282.53,255.04,287.02,253.72z"/>
						</g>
					</g>
				</g>
			</g>
		</g>
		<g>
			<g>
				<g>
					
						<rect x="149.09" y="204.85" transform="matrix(-1 -1.224647e-16 1.224647e-16 -1 330.6016 463.6714)" class="st13" width="32.43" height="53.96"/>
					<rect x="139.4" y="204.85" class="st14" width="9.68" height="53.96"/>
					
						<rect x="46.02" y="204.85" transform="matrix(-1 -1.224647e-16 1.224647e-16 -1 124.4691 463.6714)" class="st15" width="32.43" height="53.96"/>
					<rect x="36.34" y="204.85" class="st14" width="9.68" height="53.96"/>
					<rect x="36.34" y="204.85" class="st14" width="112.75" height="8.72"/>
					<rect x="36.34" y="250.09" class="st14" width="112.75" height="8.72"/>
				</g>
				<g>
					<polygon class="st16" points="174.28,273.11 182.13,273.11 174.4,258.82 166.54,258.82 					"/>
					<polygon class="st15" points="141.91,273.11 149.76,273.11 142.02,258.82 134.17,258.82 					"/>
				</g>
				<g>
					<polygon class="st15" points="41.56,273.11 33.71,273.11 41.44,258.82 49.29,258.82 					"/>
					<polygon class="st16" points="73.93,273.11 66.08,273.11 73.81,258.82 81.66,258.82 					"/>
				</g>
			</g>
			<g>
				<g>
					<path class="st2" d="M28.38,187.63h161.36c2.54,0,4.6-2.06,4.6-4.6V89.01c0-2.54-2.06-4.6-4.6-4.6H28.38
						c-2.54,0-4.6,2.06-4.6,4.6v94.01C23.77,185.57,25.83,187.63,28.38,187.63z"/>
					<path d="M187.46,180.01V92.03c0-4.21-3.31-7.62-7.39-7.62h6.87c4.08,0,7.39,3.41,7.39,7.62v87.97c0,4.21-3.31,7.62-7.39,7.62
						h-6.87C184.15,187.63,187.46,184.22,187.46,180.01z"/>
				</g>
				<g>
					<path class="st17" d="M94.99,163.04h20.67v0.09c-1.97,0.42-3.45,2.21-3.45,4.37v37.35H90.66V167.5
						C90.66,165.04,92.6,163.04,94.99,163.04z"/>
					<path d="M115.66,163.13v-0.09h2.14v0.09v1.28h-0.28c-1.67,0-3.16,1.33-3.17,3.05c0,0.01,0,0.02,0,0.04v37.35h-2.14V167.5
						C112.21,165.35,113.69,163.55,115.66,163.13z"/>
				</g>
				<g>
					<path d="M60.75,155.56h90.93c2.51,0,4.54-2.03,4.54-4.54v-46.3c0-2.51-2.03-4.54-4.54-4.54H60.75c-2.51,0-4.54,2.03-4.54,4.54
						v46.3C56.21,153.53,58.24,155.56,60.75,155.56z"/>
					<path class="st17" d="M56.78,155.56h90.93c2.51,0,4.54-2.03,4.54-4.54v-46.3c0-2.51-2.03-4.54-4.54-4.54H56.78
						c-2.51,0-4.54,2.03-4.54,4.54v46.3C52.24,153.53,54.27,155.56,56.78,155.56z"/>
					<path class="st2" d="M60.66,147.12H73.7c0.57,0,1.04-0.46,1.04-1.04v-34.18c0-0.57-0.46-1.04-1.04-1.04H60.66
						c-0.57,0-1.04,0.46-1.04,1.04v34.18C59.63,146.65,60.09,147.12,60.66,147.12z"/>
				</g>
				<path d="M67.18,204.85h74.1l0,0c0-2.57-2.02-4.65-4.51-4.65H71.7C69.2,200.2,67.18,202.28,67.18,204.85L67.18,204.85z"/>
			</g>
			<g>
				
					<rect x="64.16" y="232.35" transform="matrix(-1 -1.224647e-16 1.224647e-16 -1 188.667 478.1186)" class="st2" width="60.34" height="13.42"/>
				
					<rect x="67.53" y="245.77" transform="matrix(-1 -1.224647e-16 1.224647e-16 -1 188.667 495.8641)" width="53.61" height="4.32"/>
			</g>
		</g>
	</g>
</g>
<path class="st18" d="M256.57,118.81c0.4,0.47,2.7,3.13,6.55,3.32c4.39,0.23,7.14-2.93,7.48-3.32"/>
</svg>
